<svg xmlns="http://www.w3.org/2000/svg" viewBox="0 0 96 96" role="img" aria-label="Avatar 1">
  <rect width="96" height="96" rx="24" fill="#f3d37a"/>
  <circle cx="28" cy="27" r="18" fill="#2b6758"/>
  <circle cx="66" cy="29" r="16" fill="#d85f46"/>
  <path d="M12 79c8-20 24-30 44-30 13 0 24 5 32 16v31H12Z" fill="#1e2f2a"/>
  <circle cx="48" cy="42" r="22" fill="#f8ead2"/>
  <path d="M28 43c6-16 19-24 38-22 6 8 6 18 0 30-10-7-23-10-38-8Z" fill="#33443b"/>
  <circle cx="39" cy="48" r="3" fill="#17201b"/>
  <circle cx="57" cy="48" r="3" fill="#17201b"/>
  <path d="M39 61c5 4 12 4 18 0" fill="none" stroke="#17201b" stroke-width="4" stroke-linecap="round"/>
</svg>
