<svg xmlns="http://www.w3.org/2000/svg" viewBox="0 0 96 96" role="img" aria-label="Avatar 10">
  <rect width="96" height="96" rx="24" fill="#cbd868"/>
  <circle cx="74" cy="73" r="25" fill="#d9534f"/>
  <path d="M11 78c9-17 22-25 39-25 16 0 28 8 36 24v19H11Z" fill="#20332e"/>
  <circle cx="48" cy="45" r="24" fill="#173f35"/>
  <circle cx="48" cy="50" r="20" fill="#c58963"/>
  <path d="M26 42c8-18 23-24 45-17 1 11-3 19-12 24-9-7-20-9-33-7Z" fill="#17201b"/>
  <circle cx="40" cy="52" r="3" fill="#101713"/>
  <circle cx="57" cy="52" r="3" fill="#101713"/>
  <path d="M42 64c5 3 10 3 15 0" fill="none" stroke="#101713" stroke-width="4" stroke-linecap="round"/>
</svg>
