<svg xmlns="http://www.w3.org/2000/svg" viewBox="0 0 96 96" role="img" aria-label="Avatar 6">
  <rect width="96" height="96" rx="24" fill="#244a60"/>
  <circle cx="23" cy="21" r="18" fill="#f7cf68"/>
  <path d="M8 79c10-18 24-27 42-27 17 0 29 8 38 25v19H8Z" fill="#f6efe1"/>
  <circle cx="49" cy="44" r="24" fill="#0e1714"/>
  <circle cx="49" cy="49" r="20" fill="#a86f4f"/>
  <path d="M28 39c8-17 22-23 43-17 3 10 2 17-3 23-13-6-26-8-40-6Z" fill="#101713"/>
  <circle cx="40" cy="52" r="3" fill="#101713"/>
  <circle cx="58" cy="52" r="3" fill="#101713"/>
  <path d="M42 64c5 3 10 3 15 0" fill="none" stroke="#101713" stroke-width="4" stroke-linecap="round"/>
</svg>
